<svg width="53" height="56" viewBox="0 0 53 56" fill="none" xmlns="http://www.w3.org/2000/svg">
<path d="M49.905 22.8788C49.299 22.0772 48.5387 21.4028 47.6958 20.861L25.4378 6.60946C24.9475 6.29436 24.3745 6.13957 23.7905 6.16721C14.8047 6.56524 15.1793 12.6462 15.6366 14.9238C15.7413 15.4434 16.0498 15.9023 16.4961 16.1897L37.3326 29.5291C44.8254 34.3275 40.4179 40.016 40.4179 40.016C40.4179 40.016 42.0211 42.1388 49.0456 35.1236C54.1197 30.0543 51.657 25.1895 49.8995 22.8732L49.905 22.8788Z" fill="#794FFD"/>
<path d="M34.5055 30.328C34.1034 30.1954 33.6681 30.234 33.288 30.4275L11.625 41.716C7.04122 44.1041 4.22041 42.7442 2.67778 41.235C1.66956 40.251 -0.0218243 40.9807 0.000213223 42.3904C0.0277602 43.8498 0.325267 45.9561 1.13515 48.9855C2.93672 55.6911 8.01087 56.2218 10.9033 55.9343C11.9942 55.8238 13.052 55.5032 14.0216 54.9946C18.2969 52.7667 34.478 44.3308 37.3208 42.8493C37.6018 42.7055 37.8332 42.4789 37.982 42.2025C42.4997 33.7444 36.5716 30.9969 34.5 30.317L34.5055 30.328Z" fill="#794FFD"/>
<path d="M12.3138 38.6958C12.6223 38.4028 12.7986 37.9993 12.8096 37.5736L13.322 13.084C13.4322 7.90409 15.972 6.06875 18.0325 5.43302C19.3768 5.01841 19.5476 3.17754 18.3025 2.51969C17.0133 1.84526 15.0299 1.09343 11.9942 0.358188C5.25622 -1.26708 2.35828 2.95088 1.22334 5.63203C0.793611 6.64368 0.573235 7.72719 0.551198 8.82729C0.452028 13.6644 0.066371 31.957 0.000258253 35.1688C-0.00525114 35.484 0.0773897 35.7991 0.248181 36.0644C5.47659 44.0968 10.727 40.1939 12.3082 38.6958H12.3138Z" fill="#794FFD"/>
</svg>
