<svg width="244" height="56" viewBox="0 0 244 56" fill="none" xmlns="http://www.w3.org/2000/svg">
<g clip-path="url(#clip0_4457_10109)">
<path d="M69.0281 36.8142C66.4001 36.8142 64.2074 35.9297 62.4499 34.1552C60.6924 32.3806 59.8164 30.186 59.8164 27.5712C59.8164 24.9564 60.6924 22.7617 62.4499 20.9872C64.2074 19.2126 66.4001 18.3281 69.0281 18.3281C70.725 18.3281 72.2731 18.7372 73.667 19.5554C75.0609 20.3735 76.1187 21.4681 76.8404 22.8446L72.9673 25.1222C72.6202 24.398 72.0913 23.8286 71.3806 23.4085C70.6699 22.9883 69.8766 22.7783 68.9895 22.7783C67.6397 22.7783 66.5213 23.226 65.6398 24.1271C64.7528 25.0282 64.3121 26.1781 64.3121 27.5767C64.3121 28.9753 64.7528 30.092 65.6398 30.9931C66.5213 31.8942 67.6397 32.3419 68.9895 32.3419C69.8986 32.3419 70.703 32.1374 71.4137 31.7283C72.1244 31.3192 72.6533 30.7554 73.0004 30.0312L76.9065 32.2701C76.1407 33.6466 75.0554 34.7522 73.6615 35.5814C72.2676 36.4106 70.7195 36.8253 69.0226 36.8253L69.0281 36.8142Z" fill="#794FFD"/>
<path d="M85.6711 21.8259C86.0898 20.7037 86.784 19.8635 87.7481 19.3051C88.7123 18.7468 89.7921 18.4648 90.9766 18.4648V23.5065C89.6048 23.3462 88.3762 23.6226 87.2964 24.3468C86.2165 25.071 85.6711 26.2706 85.6711 27.9511V36.3207H81.1699V18.8131H85.6711V21.8259Z" fill="#794FFD"/>
<path d="M98.482 29.4208C99.0881 31.6155 100.724 32.71 103.402 32.71C105.121 32.71 106.427 32.1296 107.308 30.9576L110.939 33.0583C109.214 35.557 106.68 36.8064 103.33 36.8064C100.443 36.8064 98.1294 35.9329 96.3884 34.1805C94.642 32.4281 93.7715 30.2224 93.7715 27.5634C93.7715 24.9043 94.631 22.7262 96.3554 20.9628C98.0743 19.1993 100.289 18.3203 102.983 18.3203C105.545 18.3203 107.655 19.2103 109.319 20.9793C110.983 22.7539 111.815 24.9485 111.815 27.5634C111.815 28.1493 111.754 28.7685 111.638 29.4208H98.482ZM98.4104 25.9215H107.308C107.049 24.7329 106.52 23.8429 105.721 23.2625C104.917 22.682 104.008 22.389 102.983 22.389C101.771 22.389 100.774 22.6986 99.9806 23.3177C99.1872 23.9369 98.6638 24.8048 98.4104 25.927V25.9215Z" fill="#794FFD"/>
<path d="M129.819 18.8156H134.32V36.3232H129.819V34.2556C128.469 35.9583 126.574 36.8096 124.133 36.8096C121.693 36.8096 119.814 35.9141 118.15 34.1285C116.486 32.3429 115.654 30.1538 115.654 27.5611C115.654 24.9684 116.486 22.7792 118.15 20.9936C119.814 19.2081 121.808 18.3125 124.133 18.3125C126.574 18.3125 128.475 19.1638 129.819 20.8665V18.799V18.8156ZM121.511 31.1212C122.42 32.0444 123.571 32.5032 124.965 32.5032C126.359 32.5032 127.516 32.0444 128.436 31.1212C129.356 30.198 129.813 29.015 129.813 27.5666C129.813 26.1182 129.356 24.9352 128.436 24.012C127.516 23.0888 126.359 22.63 124.965 22.63C123.571 22.63 122.42 23.0888 121.511 24.012C120.602 24.9352 120.15 26.1182 120.15 27.5666C120.15 29.015 120.602 30.198 121.511 31.1212Z" fill="#794FFD"/>
<path d="M150.126 23.1532H146.181V30.4393C146.181 31.0474 146.33 31.4896 146.633 31.7716C146.936 32.0535 147.377 32.2083 147.961 32.2414C148.545 32.2746 149.261 32.2691 150.126 32.2249V36.3212C147.03 36.6695 144.848 36.3765 143.581 35.4478C142.314 34.5135 141.68 32.844 141.68 30.4393V23.1532H138.645V18.8136H141.68V15.2756L146.181 13.9102V18.8136H150.126V23.1532Z" fill="#794FFD"/>
<path d="M157.284 16.713C156.54 16.713 155.895 16.4366 155.344 15.8893C154.799 15.342 154.523 14.6952 154.523 13.9434C154.523 13.1916 154.799 12.5448 155.344 11.9809C155.89 11.4226 156.534 11.1406 157.284 11.1406C158.033 11.1406 158.711 11.4226 159.256 11.9809C159.801 12.5392 160.077 13.1971 160.077 13.9434C160.077 14.6897 159.801 15.3365 159.256 15.8893C158.711 16.4366 158.049 16.713 157.284 16.713ZM155.052 36.3213V18.8137H159.554V36.3213H155.052Z" fill="#794FFD"/>
<path d="M176.89 18.8125H181.843L175.21 36.3201H170.081L163.447 18.8125H168.4L172.631 31.0628L176.879 18.8125H176.89Z" fill="#794FFD"/>
<path d="M188.863 29.4208C189.469 31.6155 191.105 32.71 193.783 32.71C195.502 32.71 196.807 32.1296 197.689 30.9576L201.32 33.0583C199.595 35.557 197.061 36.8064 193.711 36.8064C190.824 36.8064 188.51 35.9329 186.769 34.1805C185.023 32.4281 184.152 30.2224 184.152 27.5634C184.152 24.9043 185.012 22.7262 186.736 20.9628C188.455 19.1993 190.67 18.3203 193.364 18.3203C195.926 18.3203 198.036 19.2103 199.7 20.9793C201.364 22.7539 202.196 24.9485 202.196 27.5634C202.196 28.1493 202.135 28.7685 202.019 29.4208H188.863ZM188.791 25.9215H197.689C197.43 24.7329 196.901 23.8429 196.102 23.2625C195.298 22.682 194.389 22.389 193.364 22.389C192.152 22.389 191.155 22.6986 190.361 23.3177C189.568 23.9369 189.045 24.8048 188.791 25.927V25.9215Z" fill="#794FFD"/>
<path d="M210.394 35.903C209.81 36.4889 209.115 36.7764 208.3 36.7764C207.485 36.7764 206.785 36.4834 206.206 35.903C205.622 35.3225 205.336 34.6204 205.336 33.8023C205.336 32.9841 205.628 32.282 206.206 31.7016C206.785 31.1211 207.485 30.8281 208.3 30.8281C209.115 30.8281 209.81 31.1211 210.394 31.7016C210.972 32.2876 211.264 32.9841 211.264 33.8023C211.264 34.6204 210.972 35.3225 210.394 35.903Z" fill="#794FFD"/>
<path d="M228.647 18.8156H233.148V36.3232H228.647V34.2556C227.297 35.9583 225.402 36.8096 222.956 36.8096C220.509 36.8096 218.636 35.9141 216.972 34.1285C215.308 32.3429 214.477 30.1538 214.477 27.5611C214.477 24.9684 215.308 22.7792 216.972 20.9936C218.636 19.2081 220.631 18.3125 222.956 18.3125C225.396 18.3125 227.297 19.1638 228.647 20.8665V18.799V18.8156ZM220.339 31.1212C221.248 32.0444 222.399 32.5032 223.793 32.5032C225.187 32.5032 226.344 32.0444 227.264 31.1212C228.184 30.198 228.641 29.015 228.641 27.5666C228.641 26.1182 228.178 24.9352 227.264 24.012C226.344 23.0888 225.187 22.63 223.793 22.63C222.399 22.63 221.248 23.0888 220.339 24.012C219.429 24.9352 218.978 26.1182 218.978 27.5666C218.978 29.015 219.429 30.198 220.339 31.1212Z" fill="#794FFD"/>
<path d="M241.207 16.713C240.464 16.713 239.819 16.4366 239.268 15.8893C238.717 15.342 238.447 14.6952 238.447 13.9434C238.447 13.1916 238.723 12.5448 239.268 11.9809C239.814 11.4226 240.458 11.1406 241.207 11.1406C241.957 11.1406 242.634 11.4226 243.18 11.9809C243.725 12.5392 244.001 13.1971 244.001 13.9434C244.001 14.6897 243.725 15.3365 243.18 15.8893C242.634 16.4366 241.973 16.713 241.207 16.713ZM238.976 36.3213V18.8137H243.477V36.3213H238.976Z" fill="#794FFD"/>
<path d="M49.905 22.8788C49.299 22.0772 48.5387 21.4028 47.6958 20.861L25.4378 6.60946C24.9475 6.29436 24.3745 6.13957 23.7905 6.16721C14.8047 6.56524 15.1793 12.6462 15.6366 14.9238C15.7413 15.4434 16.0498 15.9023 16.4961 16.1897L37.3326 29.5291C44.8254 34.3275 40.4179 40.016 40.4179 40.016C40.4179 40.016 42.0211 42.1388 49.0456 35.1236C54.1197 30.0543 51.657 25.1895 49.8995 22.8732L49.905 22.8788Z" fill="#794FFD"/>
<path d="M34.5055 30.328C34.1034 30.1954 33.6681 30.234 33.288 30.4275L11.625 41.716C7.04122 44.1041 4.22041 42.7442 2.67778 41.235C1.66956 40.251 -0.0218243 40.9807 0.000213223 42.3904C0.0277602 43.8498 0.325267 45.9561 1.13515 48.9855C2.93672 55.6911 8.01087 56.2218 10.9033 55.9343C11.9942 55.8238 13.052 55.5032 14.0216 54.9946C18.2969 52.7667 34.478 44.3308 37.3208 42.8493C37.6018 42.7055 37.8332 42.4789 37.982 42.2025C42.4997 33.7444 36.5716 30.9969 34.5 30.317L34.5055 30.328Z" fill="#794FFD"/>
<path d="M12.3138 38.6958C12.6223 38.4028 12.7986 37.9993 12.8096 37.5736L13.322 13.084C13.4322 7.90409 15.972 6.06875 18.0325 5.43302C19.3768 5.01841 19.5476 3.17754 18.3025 2.51969C17.0133 1.84526 15.0299 1.09343 11.9942 0.358188C5.25622 -1.26708 2.35828 2.95088 1.22334 5.63203C0.793611 6.64368 0.573235 7.72719 0.551198 8.82729C0.452028 13.6644 0.066371 31.957 0.000258253 35.1688C-0.00525114 35.484 0.0773897 35.7991 0.248181 36.0644C5.47659 44.0968 10.727 40.1939 12.3082 38.6958H12.3138Z" fill="#794FFD"/>
</g>
<defs>
<clipPath id="clip0_4457_10109">
<rect width="244" height="56" fill="white"/>
</clipPath>
</defs>
</svg>
