<svg width="84" height="84" viewBox="0 0 84 84" fill="none" xmlns="http://www.w3.org/2000/svg">
<path d="M83.5323 42.2808C83.5323 47.7347 82.4581 53.1352 80.371 58.174C78.2839 63.2127 75.2247 67.791 71.3682 71.6475C67.5117 75.504 62.9334 78.5632 57.8947 80.6503C52.8559 82.7374 47.4554 83.8116 42.0015 83.8116C36.5476 83.8116 31.1471 82.7374 26.1084 80.6503C21.0696 78.5632 16.4913 75.504 12.6348 71.6475C8.7783 67.791 5.71917 63.2127 3.63205 58.174C1.54493 53.1352 0.470703 47.7347 0.470703 42.2808C0.470703 31.2662 4.84626 20.7026 12.6348 12.9141C20.4233 5.12556 30.9869 0.75 42.0015 0.75C53.0162 0.75 63.5797 5.12556 71.3682 12.9141C79.1568 20.7026 83.5323 31.2662 83.5323 42.2808Z" fill="url(#paint0_linear_4457_8890)"/>
<path d="M54.5676 38.3899C54.5676 38.3885 54.5668 38.3871 54.5656 38.3863L39.5399 28.4118C38.8313 27.9412 38.0076 27.6711 37.1567 27.6304C36.3059 27.5897 35.46 27.7799 34.7093 28.1806C33.9587 28.5814 33.3315 29.1777 32.8949 29.9057C32.4583 30.6338 32.2286 31.4662 32.2305 32.3141V52.2611C32.2304 53.1082 32.4613 53.9395 32.8985 54.6662C33.3358 55.3929 33.9631 55.9878 34.7135 56.3874C35.4638 56.7871 36.3091 56.9765 37.1591 56.9354C38.0091 56.8943 38.8319 56.6242 39.5399 56.1541L54.5676 46.1783C55.2113 45.751 55.7392 45.1721 56.1043 44.493C56.4693 43.8138 56.6604 43.0555 56.6604 42.2853C56.6604 41.515 56.4693 40.7567 56.1043 40.0776C55.7396 39.3992 55.2124 38.8208 54.5695 38.3936C54.5683 38.3928 54.5676 38.3914 54.5676 38.3899V38.3899Z" fill="white"/>
<defs>
<linearGradient id="paint0_linear_4457_8890" x1="84.0617" y1="-1.75951" x2="-1.37088" y2="0.766534" gradientUnits="userSpaceOnUse">
<stop stop-color="#794FFD"/>
<stop offset="0.333333" stop-color="#5656FE"/>
<stop offset="0.666667" stop-color="#3A9CFF"/>
<stop offset="1" stop-color="#02DEFD"/>
</linearGradient>
</defs>
</svg>
